<?xml version="1.0" standalone="no"?>
<!DOCTYPE svg PUBLIC "-//W3C//DTD SVG 20010904//EN"
 "http://www.w3.org/TR/2001/REC-SVG-20010904/DTD/svg10.dtd">
<svg version="1.0" xmlns="http://www.w3.org/2000/svg"
 width="624.000000pt" height="624.000000pt" viewBox="0 0 624.000000 624.000000"
 preserveAspectRatio="xMidYMid meet">
<metadata>
Created by potrace 1.14, written by Peter Selinger 2001-2017
</metadata>
<g transform="translate(0.000000,624.000000) scale(0.100000,-0.100000)"
fill="#000000" stroke="none">
<path d="M3129 6235 c-2 -1 -33 -6 -69 -9 -134 -12 -301 -46 -375 -77 -16 -7
-32 -13 -35 -14 -3 0 -15 -6 -27 -13 -13 -7 -23 -9 -23 -5 0 4 -4 3 -8 -3 -4
-6 -27 -21 -52 -35 -25 -13 -47 -26 -50 -29 -3 -3 -21 -17 -40 -32 -114 -86
-251 -259 -362 -458 -41 -72 -357 -613 -368 -630 -6 -8 -13 -22 -17 -30 -4 -8
-9 -17 -12 -20 -3 -3 -14 -21 -25 -40 -23 -44 -41 -74 -100 -173 -25 -43 -46
-83 -46 -88 0 -5 -4 -9 -9 -9 -5 0 -13 -10 -17 -22 -4 -13 -22 -47 -40 -76
-19 -29 -34 -56 -34 -61 0 -5 -3 -11 -7 -13 -5 -1 -15 -16 -24 -33 -16 -29
-145 -252 -178 -307 -9 -15 -68 -116 -131 -225 -63 -109 -119 -206 -125 -215
-56 -94 -75 -129 -75 -138 0 -5 -4 -10 -8 -10 -5 0 -15 -12 -23 -27 -8 -16
-43 -77 -78 -138 -89 -153 -193 -379 -215 -470 -2 -5 -6 -17 -9 -25 -20 -52
-60 -231 -73 -325 -3 -27 -8 -59 -11 -70 -9 -39 -11 -371 -2 -440 15 -128 18
-150 23 -175 3 -14 11 -50 16 -80 6 -30 15 -66 20 -80 5 -14 11 -36 14 -50 16
-93 179 -475 209 -488 4 -2 7 -8 7 -13 0 -12 112 -183 122 -187 5 -2 8 -10 8
-17 0 -7 3 -15 8 -17 4 -2 37 -39 73 -83 71 -85 230 -242 295 -291 21 -16 48
-37 59 -47 16 -15 153 -106 231 -154 43 -27 244 -123 256 -123 8 0 18 -4 24
-9 10 -9 168 -65 219 -77 17 -4 35 -8 40 -10 16 -5 98 -25 120 -30 67 -14 77
-15 205 -31 36 -4 142 -8 235 -8 179 0 270 7 395 30 69 12 87 16 110 22 14 3
30 7 35 8 65 15 181 52 245 78 14 5 30 11 35 12 6 2 33 13 60 26 28 13 52 23
55 24 8 0 126 63 163 85 17 11 40 23 50 26 9 4 17 10 17 15 0 5 3 8 8 7 4 -2
36 17 71 41 184 126 391 321 513 486 20 28 41 55 45 60 93 113 253 436 303
610 6 22 14 47 17 55 8 19 10 28 18 69 3 19 7 37 9 40 2 3 7 22 10 41 3 19 8
47 11 63 3 15 7 39 10 54 25 147 25 500 -1 626 -2 12 -6 38 -9 57 -7 47 -35
178 -49 225 -2 6 -5 15 -6 20 -5 21 -71 202 -86 235 -45 98 -119 238 -183 344
-39 66 -71 123 -71 127 0 4 -6 14 -12 21 -7 7 -24 33 -37 58 -13 25 -29 51
-36 59 -11 11 -7 23 17 65 17 28 39 65 49 83 10 17 29 49 42 70 13 21 27 48
31 61 4 12 12 22 17 22 5 0 9 5 9 10 0 6 11 29 26 51 14 22 34 55 44 74 10 18
74 127 141 242 67 114 130 222 139 238 10 17 48 82 85 145 38 63 78 133 90
155 12 22 41 70 63 108 23 37 42 70 42 73 0 3 14 26 30 51 17 24 30 46 30 48
0 2 21 39 46 82 46 76 62 104 105 181 12 20 43 73 69 117 161 272 210 357 210
365 0 6 5 10 10 10 6 0 10 4 10 9 0 4 23 46 50 92 28 46 56 96 62 112 7 15 16
27 20 27 4 0 8 4 8 10 0 5 13 32 30 60 l30 50 -1354 0 c-745 -1 -1355 -3
-1357 -5z"/>
</g>
</svg>
